<?xml version="1.0" encoding="UTF-8" standalone="no"?>
<svg
   viewBox="0 0 64 64"
   version="1.1"
   id="svg6"
   sodipodi:docname="edit-my-dataset.svg"
   inkscape:export-filename="/home/fernando/Downloads/edit-my-dataset/share/edit-my-dataset/icons/edit-my-dataset.png"
   inkscape:export-xdpi="192"
   inkscape:export-ydpi="192"
   inkscape:version="1.1.1 (3bf5ae0d25, 2021-09-20)"
   xmlns:inkscape="http://www.inkscape.org/namespaces/inkscape"
   xmlns:sodipodi="http://sodipodi.sourceforge.net/DTD/sodipodi-0.dtd"
   xmlns="http://www.w3.org/2000/svg"
   xmlns:svg="http://www.w3.org/2000/svg">
  <defs
     id="defs10" />
  <sodipodi:namedview
     id="namedview8"
     pagecolor="#ffffff"
     bordercolor="#666666"
     borderopacity="1.0"
     inkscape:pageshadow="2"
     inkscape:pageopacity="0.0"
     inkscape:pagecheckerboard="0"
     showgrid="false"
     inkscape:zoom="11.234375"
     inkscape:cx="31.955494"
     inkscape:cy="32"
     inkscape:window-width="1848"
     inkscape:window-height="1016"
     inkscape:window-x="72"
     inkscape:window-y="27"
     inkscape:window-maximized="1"
     inkscape:current-layer="svg6" />
  <path
     d="m 31 4.75 -28.25 30.422 26.08 26.08 30.422 -30.422 l 0 -26.08 -28.25 0 z m 14.13 8.07 a 6.05 6.05 0 0 1 6.05 6.05 6.05 6.05 0 0 1 -6.05 6.05 6.05 6.05 0 0 1 -6.05 -6.05 6.05 6.05 0 0 1 6.05 -6.05 z"
     style="stroke-dasharray:none;stroke-opacity:1;fill:#e6e1a2;opacity:1;stroke-miterlimit:4;fill-opacity:1;stroke:#a3a093;stroke-linecap:round;stroke-linejoin:round;stroke-width:1.5"
     id="path2" />
  <path
     d="m 64 40 l -12 0 l 0 -12 l -12 0 l 0 12 l -12 0 l 0 12 l 12 0 l 0 12 l 12 0 l 0 -12 l 12 0 Z"
     style="fill:#859900"
     id="path4" />
</svg>
